HIERARCHY
ROOT Hips
{
	OFFSET 0.00000 0.00000 0.00000
	CHANNELS 6 Xposition Yposition Zposition Zrotation Yrotation Xrotation 
	JOINT LHipJoint
	{
		OFFSET 0 0 0
		CHANNELS 3 Zrotation Yrotation Xrotation
		JOINT LeftHip
		{
			OFFSET 1.29432 -1.88279 0.59910
			CHANNELS 3 Zrotation Yrotation Xrotation
			JOINT LeftKnee
			{
				OFFSET 2.63039 -7.22694 0.00000
				CHANNELS 3 Zrotation Yrotation Xrotation
				JOINT LeftAnkle
				{
					OFFSET 2.70674 -7.43672 0.00000
					CHANNELS 3 Zrotation Yrotation Xrotation
					JOINT LeftToe
					{
						OFFSET 0.15066 -0.41394 2.09027
						CHANNELS 3 Zrotation Yrotation Xrotation
						End Site
						{
							OFFSET 0.00000 -0.00000 1.07518
						}
					}
				}
			}
		}
	}
	JOINT RHipJoint
	{
		OFFSET 0 0 0
		CHANNELS 3 Zrotation Yrotation Xrotation
		JOINT RightHip
		{
			OFFSET -1.37068 -1.88279 0.59910
			CHANNELS 3 Zrotation Yrotation Xrotation
			JOINT RightKnee
			{
				OFFSET -2.57023 -7.06166 0.00000
				CHANNELS 3 Zrotation Yrotation Xrotation
				JOINT RightAnkle
				{
					OFFSET -2.76461 -7.59570 0.00000
					CHANNELS 3 Zrotation Yrotation Xrotation
					JOINT RightToe
					{
						OFFSET -0.24175 -0.64785 2.19719
						CHANNELS 3 Zrotation Yrotation Xrotation
						End Site
						{
							OFFSET -0.00000 -0.00000 1.14803
						}
					}
				}
			}
		}
	}
	JOINT lowerback
	{
		OFFSET 0 0 0
		CHANNELS 3 Zrotation Yrotation Xrotation
		JOINT Chest
		{
			OFFSET -0.03138 2.03983 -0.23106
			CHANNELS 3 Zrotation Yrotation Xrotation
			JOINT Chest2
			{
				OFFSET -0.00325 2.06238 -0.06878
				CHANNELS 3 Zrotation Yrotation Xrotation
				JOINT lowerneck
				{
					OFFSET 0 0 0
					CHANNELS 3 Zrotation Yrotation Xrotation
					JOINT Neck
					{
						OFFSET -0.00002 1.75318 0.18090
						CHANNELS 3 Zrotation Yrotation Xrotation
						JOINT Head
						{
							OFFSET 0.08806 1.75856 -0.25387
							CHANNELS 3 Zrotation Yrotation Xrotation
							End Site
							{
								OFFSET 0.02554 1.78597 -0.10684
							}
						}
					}
				}
				JOINT LeftCollar
				{
					OFFSET 0 0 0
					CHANNELS 3 Zrotation Yrotation Xrotation
					JOINT LeftShoulder
					{
						OFFSET 3.09657 1.33597 -0.04414
CHANNELS 3 Zrotation Xrotation Yrotation
						JOINT LeftElbow
						{
OFFSET 0 -5.342980 -0.000000
CHANNELS 3 Zrotation Xrotation Yrotation
							JOINT LeftWrist
							{
OFFSET 0 -3.672620 -0.000000
CHANNELS 3 Zrotation Xrotation Yrotation
								JOINT lhand
								{
									OFFSET 0 0 0
CHANNELS 3 Zrotation Xrotation Yrotation
									JOINT LFingers
									{
OFFSET 0 -0.599300 -0.000000
CHANNELS 3 Zrotation Xrotation Yrotation
										End Site
										{
OFFSET 0 -0.483170 -0.000000
										}
									}
								}
								JOINT LThumb
								{
OFFSET 0 0.000000 0.000000
CHANNELS 3 Zrotation Xrotation Yrotation
									End Site
									{
OFFSET 0 -0.490550 0.490550
									}
								}
							}
						}
					}
				}
				JOINT RightCollar
				{
					OFFSET 0 0 0
					CHANNELS 3 Zrotation Yrotation Xrotation
					JOINT RightShoulder
					{
						OFFSET -3.16460 1.32273 -0.23382
CHANNELS 3 Zrotation Xrotation Yrotation
						JOINT RightElbow
						{
OFFSET 0 -5.549670 0.033480
CHANNELS 3 Zrotation Xrotation Yrotation
							JOINT RightWrist
							{
OFFSET 0 -3.694010 0.000000
CHANNELS 3 Zrotation Xrotation Yrotation
								JOINT rhand
								{
									OFFSET 0 0 0
CHANNELS 3 Zrotation Xrotation Yrotation
									JOINT RFingers
									{
OFFSET 0 -0.638110 0.000000
CHANNELS 3 Zrotation Xrotation Yrotation
										End Site
										{
OFFSET 0 -0.514460 0.000000
										}
									}
								}
								JOINT RThumb
								{
OFFSET 0 0.000000 0.000000
CHANNELS 3 Zrotation Xrotation Yrotation
									End Site
									{
OFFSET 0 -0.522320 0.522320
									}
								}
							}
						}
					}
				}
			}
		}
	}
}
MOTION
Frames: 16
Frame Time: .0083333
16.1896 18.6480 -2.0904 170.2990 3.2729 -173.0530 0.0000 0.0000 0.0000 -31.5454 4.6684 7.5717 0.0508 1.4552 4.0023 0.0535 0.5827 -4.6241 0.9563 -6.2272 -17.4450 0.0000 0.0000 0.0000 0.5512 21.5008 -29.9973 -1.4624 -7.6427 21.6339 0.0612 -12.4368 -16.8720 -0.1047 2.0865 -5.7449 -13.9448 -3.2257 -0.6593 -2.8144 -3.8427 -0.2301 4.7416 -1.8005 0.8799 -4.4100 -2.2423 -8.1986 15.8377 -2.5472 1.2800 5.4390 -0.5937 2.0338 -0.0000 0.0000 0.0000 22.9347 -45.9418 5.2186 46.1697 -51.3288 23.1484 -1.2058 -64.0635 -26.8959 0.0 0.0 0.0 -7.1250 0.0 0.0 -32.4098 53.762 7.6006 -0.0000 0.0000 0.0000 0.8304 12.4961 4.45 -11.3102 -18.7622 -1.8745 -20.5568 17.5429 -22.7383 0.0 0.0 0.0 7.1250 0.0 -0.0 5.2579 5.9522 4.7046
16.2141 18.6405 -2.2616 170.2330 3.1422 -172.9750 0.0000 0.0000 0.0000 -31.3640 5.4570 10.0388 0.0000 -0.0000 -0.0000 0.0043 1.2805 -2.3027 0.9408 -6.1780 -17.3017 0.0000 0.0000 0.0000 -0.3941 23.4035 -29.6034 -1.2995 -7.2220 20.3747 0.0449 -12.9712 -17.8767 -0.0014 0.2453 -0.6741 -14.0285 -3.2560 -0.8724 -2.7530 -3.8450 -0.1996 4.8380 -1.8148 1.0426 -4.4521 -2.2122 -8.1725 15.7646 -2.4939 1.1914 5.4253 -0.5771 1.9969 -0.0000 -0.0000 0.0000 24.0732 -46.0966 6.0492 46.8827 -51.6582 23.7064 -3.0525 -65.119 -30.3626 0.0 0.0 0.0 -7.1250 0.0 0.0 -36.8754 56.2749 11.2677 -0.0000 -0.0000 0.0000 0.878 12.7642 4.1568 -11.2027 -18.5982 -1.84 -19.2752 18.4848 -21.3869 0.0 0.0 0.0 7.1250 0.0 -0.0 5.9568 7.5473 5.1514
16.2423 18.6293 -2.4289 170.1540 2.9446 -172.9280 0.0000 0.0000 0.0000 -31.2604 5.4832 10.5564 0.0000 0.0000 0.0000 0.0035 1.1576 -2.0849 1.0161 -6.4132 -17.9881 0.0000 0.0000 0.0000 -1.1717 24.8622 -29.3300 -1.1741 -6.8776 19.3533 0.0227 -13.4335 -18.8225 -0.0150 0.7914 -2.1751 -13.9759 -3.2179 -0.7614 -2.7628 -3.8217 -0.2744 4.8093 -1.7903 0.8919 -4.5118 -2.2916 -8.1472 15.8077 -2.5656 0.9833 5.4450 -0.6184 1.9413 0.0000 0.0000 0.0000 24.9155 -46.1449 6.3205 47.5514 -51.9589 24.2319 -3.6101 -64.9382 -31.686 0.0 0.0 0.0 -7.1250 0.0 0.0 -38.5880 57.2172 12.8298 0.0000 0.0000 0.0000 1.0364 13.0975 3.2744 -11.0984 -18.4388 -1.8069 -18.2147 19.7494 -20.0374 0.0 0.0 0.0 7.1250 0.0 -0.0 6.5464 9.086 5.4672
16.2650 18.6166 -2.5931 170.0040 2.7419 -172.9410 0.0000 0.0000 0.0000 -31.2458 5.5548 11.2008 0.0000 -0.0000 -0.0000 0.0047 0.9602 -2.0038 1.1744 -6.8786 -19.3561 0.0000 0.0000 0.0000 -1.7564 25.6104 -29.1996 -1.0839 -6.6171 18.5860 -0.0092 -13.5356 -19.3461 -0.0039 0.4047 -1.1120 -13.9302 -3.2157 -0.5229 -2.8055 -3.8598 -0.2967 4.7524 -1.7968 0.7349 -4.4873 -2.4165 -8.2525 15.7629 -2.6981 0.7237 5.4198 -0.6882 1.8959 0.0000 0.0000 0.0000 25.8879 -46.1979 6.6584 48.0127 -52.1619 24.5958 -3.4146 -64.2164 -30.4803 0.0 0.0 0.0 -7.1250 0.0 0.0 -37.3143 56.2959 11.4501 0.0000 0.0000 0.0000 1.1089 13.3195 2.8633 -10.9799 -18.2574 -1.7696 -19.0925 19.2487 -21.5156 0.0 0.0 0.0 7.1250 0.0 -0.0 6.0819 7.4406 5.2737
16.2877 18.6036 -2.7610 169.9180 2.6159 -173.0180 0.0000 0.0000 0.0000 -31.1651 5.7358 11.8748 0.0000 0.0000 0.0000 0.0046 0.8689 -1.8995 1.3442 -7.3404 -20.7279 0.0000 0.0000 0.0000 -1.9366 25.7528 -29.0221 -1.0103 -6.3953 17.9359 -0.0724 -13.1297 -19.5224 -0.0574 1.5458 -4.2520 -13.8951 -3.2918 -0.4071 -2.8017 -3.9736 -0.2017 4.7358 -1.8614 0.7892 -4.3981 -2.3908 -8.7023 15.6352 -2.6739 0.7976 5.3654 -0.6575 1.9860 -0.0000 -0.0000 0.0000 27.1445 -46.184 7.5258 48.4495 -52.3507 24.9411 -3.5751 -63.761 -29.6475 0.0 0.0 0.0 -7.1250 0.0 0.0 -36.7467 55.5917 10.5803 -0.0000 -0.0000 0.0000 1.0635 13.4564 2.7465 -10.8545 -18.0649 -1.7305 -19.5022 19.1569 -23.4286 0.0 0.0 0.0 7.1250 0.0 -0.0 5.9747 5.405 5.4156
16.3159 18.5912 -2.9314 170.1490 2.4981 -172.9990 0.0000 0.0000 0.0000 -30.7192 5.8938 12.4276 0.0000 -0.0000 -0.0000 0.0057 0.7393 -1.8957 1.4474 -7.6052 -21.5212 0.0000 0.0000 0.0000 -1.6422 25.7413 -28.9267 -0.9591 -6.2360 17.4709 -0.1153 -12.8135 -19.5939 -0.0680 1.6822 -4.6282 -13.6313 -3.3444 -0.4782 -2.6771 -4.0487 -0.1567 4.7147 -1.9148 0.8798 -4.3166 -2.2493 -8.9599 15.5120 -2.5068 0.9560 5.3215 -0.5630 2.0541 -0.0000 -0.0000 0.0000 28.3086 -46.0776 8.3224 48.7705 -52.4874 25.1955 -3.7813 -63.2766 -28.9094 0.0 0.0 0.0 -7.1250 0.0 0.0 -36.3256 54.9519 9.8374 -0.0000 -0.0000 0.0000 0.922 13.5708 2.5478 -10.6408 -17.7357 -1.6649 -18.7044 19.9736 -24.4305 0.0 0.0 0.0 7.1250 0.0 -0.0 6.5527 4.5008 6.0588
16.3450 18.5715 -3.0970 170.2990 2.4615 -172.9460 0.0000 0.0000 0.0000 -30.3656 6.0829 12.8904 0.0000 0.0000 0.0000 0.0063 0.5619 -1.8126 1.4713 -7.6651 -21.7014 0.0000 0.0000 0.0000 -1.3428 25.5291 -29.0600 -0.9464 -6.1956 17.3529 -0.0785 -12.7105 -19.0330 -0.0950 1.9874 -5.4707 -13.4844 -3.2832 -0.5291 -2.5813 -3.9731 -0.1451 4.7356 -1.8854 0.9024 -4.3128 -2.2198 -9.0400 15.4727 -2.4554 0.8969 5.3109 -0.5370 2.0440 -0.0000 0.0000 0.0000 29.2646 -46.1157 8.8049 48.9919 -52.5808 25.3713 -3.8573 -62.625 -28.637 0.0 0.0 0.0 -7.1250 0.0 0.0 -36.1753 54.7153 9.5674 -0.0000 0.0000 0.0000 0.885 13.7134 2.2892 -10.4860 -17.4961 -1.618 -18.1268 20.516 -24.5127 0.0 0.0 0.0 7.1250 0.0 -0.0 6.9143 4.507 6.3973
16.3775 18.5488 -3.2612 170.2430 2.4744 -173.0120 0.0000 0.0000 0.0000 -30.2017 6.3510 13.4538 0.0000 -0.0000 -0.0000 0.0049 0.3792 -1.5140 1.4069 -7.5027 -21.2133 0.0000 0.0000 0.0000 -0.9487 24.7430 -29.2790 -0.9661 -6.2580 17.5349 -0.0226 -12.2982 -17.7869 -0.1669 2.6317 -7.2549 -13.5960 -3.1723 -0.4281 -2.5186 -3.8423 -0.0893 4.8714 -1.8253 0.8922 -4.3681 -2.3143 -9.2540 15.4266 -2.5641 0.8110 5.3002 -0.5865 2.0654 -0.0000 -0.0000 0.0000 29.9181 -46.1849 9.203 49.1686 -52.6546 25.5117 -4.4738 -62.2907 -28.9576 0.0 0.0 0.0 -7.1250 0.0 0.0 -36.9990 54.8577 9.9702 -0.0000 -0.0000 0.0000 1.032 13.7801 0.9701 -10.3731 -17.3211 -1.5842 -17.6301 21.915 -24.1123 0.0 0.0 0.0 7.1250 0.0 -0.0 7.1883 4.9913 6.5888
16.4102 18.5317 -3.4335 169.9080 2.3387 -173.0850 0.0000 0.0000 0.0000 -30.3159 6.4646 14.1087 0.0000 0.0000 0.0000 0.0027 0.1370 -1.0364 1.2130 -6.9867 -19.6760 0.0000 0.0000 0.0000 -0.7118 23.5231 -29.5352 -1.0116 -6.3995 17.9482 -0.0145 -11.6205 -16.7378 -0.1981 2.8664 -7.9072 -13.9509 -3.1720 -0.3399 -2.4974 -3.8444 -0.0469 5.0896 -1.8278 0.9137 -4.4489 -2.3797 -9.3158 15.4262 -2.6357 0.7369 5.3099 -0.6230 2.0624 0.0000 0.0000 0.0000 30.5165 -46.0925 9.6349 49.1631 -52.6523 25.5073 -5.425 -62.1112 -29.5076 0.0 0.0 0.0 -7.1250 0.0 0.0 -38.3234 55.1156 10.6682 0.0000 0.0000 0.0000 1.0488 13.7751 -0.1786 -10.1902 -17.0365 -1.5302 -17.3885 23.1769 -24.1334 0.0 0.0 0.0 7.1250 0.0 -0.0 7.3388 5.0059 6.727
16.4430 18.5072 -3.6110 169.5390 2.2457 -173.2290 0.0000 0.0000 0.0000 -30.4909 6.6403 14.7765 0.0000 -0.0000 -0.0000 0.0008 -0.0357 -0.5066 1.0007 -6.3658 -17.8494 0.0000 0.0000 0.0000 -0.5592 22.5908 -29.6113 -1.0804 -6.6066 18.5550 -0.0169 -11.1266 -16.0822 -0.2296 3.0840 -8.5126 -14.2403 -3.1892 -0.2115 -2.5749 -3.8667 0.0113 5.1692 -1.8359 0.9231 -4.3484 -2.3508 -9.3882 15.4143 -2.5857 0.6497 5.2915 -0.5945 2.0422 -0.0000 -0.0000 0.0000 31.4083 -45.7604 9.9762 49.3003 -52.7094 25.6164 -5.718 -61.6989 -29.8222 0.0 0.0 0.0 -7.1250 0.0 0.0 -38.8578 55.3088 11.0476 -0.0000 -0.0000 0.0000 0.9966 13.842 -0.1204 -10.0386 -16.7999 -1.4861 -17.4542 23.1585 -24.8791 0.0 0.0 0.0 7.1250 0.0 -0.0 7.3559 4.2369 6.8501
16.4793 18.4769 -3.7973 169.6360 2.0110 -173.6070 0.0000 0.0000 0.0000 -30.0780 6.8691 15.7580 0.0000 0.0000 0.0000 0.0000 -0.0379 -0.0452 0.9837 -6.3132 -17.6958 0.0000 0.0000 0.0000 0.2748 21.6806 -29.2852 -1.1669 -6.8573 19.2934 -0.0165 -10.7579 -15.5640 -0.0463 1.3883 -3.8180 -14.0520 -3.1321 0.0158 -2.5531 -3.8202 0.2058 5.0980 -1.8283 0.9807 -4.1990 -2.3622 -9.5367 15.2690 -2.5780 0.4409 5.2205 -0.5928 1.9996 -0.0000 0.0000 0.0000 32.0349 -45.5874 10.101 49.3962 -52.7491 25.6928 -5.8984 -61.0802 -29.4116 0.0 0.0 0.0 -7.1250 0.0 0.0 -38.6723 54.9471 10.6201 -0.0000 0.0000 0.0000 1.1065 13.8749 -0.9481 -9.9421 -16.649 -1.4583 -17.178 23.8631 -25.5513 0.0 0.0 0.0 7.1250 0.0 -0.0 7.5781 3.5964 7.1517
16.5166 18.4472 -3.9857 169.5980 1.6692 -173.7880 0.0000 0.0000 0.0000 -29.8138 6.8954 16.6454 0.0000 0.0000 0.0000 0.0009 0.0107 0.5565 1.2835 -7.1792 -20.2473 0.0000 0.0000 0.0000 1.0942 20.0749 -29.2633 -1.2480 -7.0831 19.9617 -0.0320 -9.9966 -14.7489 -0.2302 3.0878 -8.5234 -14.0665 -3.1628 0.0392 -2.4864 -3.8560 0.3533 5.1706 -1.8653 1.1364 -4.1858 -2.4033 -9.6383 15.1527 -2.6012 0.2169 5.1802 -0.6112 1.9502 0.0000 0.0000 0.0000 32.4639 -45.5566 10.4182 49.0472 -52.6039 25.4152 -7.1452 -60.6739 -28.8197 0.0 0.0 0.0 -7.1250 0.0 0.0 -39.3021 54.2383 10.1096 0.0000 0.0000 0.0000 1.1976 13.7091 -2.404 -9.7921 -16.4137 -1.4156 -16.9921 25.1951 -25.2574 0.0 0.0 0.0 7.1250 0.0 -0.0 7.6677 3.9229 7.191
16.5583 18.3997 -4.1673 169.4090 1.7908 -173.6060 0.0000 0.0000 0.0000 -29.8954 6.8934 16.2834 0.0060 0.4989 1.3708 0.0002 -0.2938 0.5161 1.5720 -7.9110 -22.4440 0.0000 0.0000 0.0000 1.5707 18.7915 -29.7760 -1.3327 -7.3100 20.6371 -0.0617 -9.0830 -13.9992 -0.3413 3.7540 -10.3857 -14.3543 -3.1812 -0.2581 -2.4277 -3.8352 0.2575 5.3758 -1.8576 1.2225 -4.1750 -2.3162 -9.5525 15.0424 -2.4813 0.1646 5.1497 -0.5640 1.9059 -0.0000 0.0000 0.0000 33.1301 -45.0842 10.7802 48.6935 -52.4548 25.1345 -8.3386 -60.5962 -28.9042 0.0 0.0 0.0 -7.1250 0.0 0.0 -40.4361 54.0801 10.3136 -0.0000 0.0000 0.0000 1.0977 13.8613 -2.3238 -9.7093 -16.2835 -1.3923 -17.6331 24.9779 -24.118 0.0 0.0 0.0 7.1250 0.0 -0.0 7.1869 4.985 6.5884
16.6001 18.3658 -4.3621 169.4790 1.7907 -173.5650 0.0000 0.0000 0.0000 -29.7559 6.4739 14.8653 0.0855 1.8864 5.1919 0.0001 -1.1028 -0.7903 1.6295 -8.0475 -22.8583 0.0000 0.0000 0.0000 2.1142 18.4130 -29.6581 -1.4195 -7.5347 21.3095 -0.0609 -9.0253 -13.9094 -0.0561 1.5281 -4.2031 -14.3486 -3.1673 -0.5921 -2.3271 -3.7686 0.2542 5.4633 -1.8409 1.4001 -4.1967 -2.2185 -9.3938 14.9693 -2.3426 0.1001 5.1371 -0.5093 1.8457 -0.0000 -0.0000 0.0000 33.7579 -44.5046 10.7826 48.4584 -52.3545 24.9482 -8.5302 -60.2691 -29.2224 0.0 0.0 0.0 -7.1250 0.0 0.0 -40.8733 54.2928 10.6869 -0.0000 -0.0000 0.0000 1.0414 13.9957 -2.8243 -9.5357 -16.0101 -1.3441 -18.3631 25.219 -24.0089 0.0 0.0 0.0 7.1250 0.0 -0.0 6.7280 4.9858 6.1614
16.6403 18.3351 -4.5699 169.6110 1.0616 -173.6590 0.0000 0.0000 0.0000 -29.3317 5.7734 14.7646 0.1689 2.6473 7.2984 0.0006 -1.4031 -1.0576 1.7412 -8.3049 -23.6440 0.0000 0.0000 0.0000 2.6386 18.1403 -28.9545 -1.5072 -7.7538 21.9686 -0.0407 -9.5602 -14.2941 -0.1640 2.6092 -7.1925 -14.1370 -3.3051 -0.7395 -2.2382 -3.9293 0.3652 5.4210 -1.9442 1.6243 -4.1867 -2.2152 -9.1857 14.9046 -2.2962 -0.2163 5.1168 -0.5068 1.7125 -0.0000 -0.0000 0.0000 34.0656 -44.1521 10.6169 47.9653 -52.1412 24.5583 -8.9485 -59.5756 -29.253 0.0 0.0 0.0 -7.1250 0.0 0.0 -41.2701 54.2372 10.7605 -0.0000 -0.0000 0.0000 1.1376 13.8992 -4.4257 -9.2753 -15.598 -1.2731 -18.4778 26.5771 -24.9067 0.0 0.0 0.0 7.1250 0.0 -0.0 6.7323 4.0494 6.2844
16.6791 18.3088 -4.7848 169.8050 0.0238 -173.6340 0.0000 0.0000 0.0000 -28.7816 4.8831 15.1094 0.2286 3.0772 8.4939 -0.0008 -1.3112 -0.8142 1.7540 -8.3337 -23.7323 0.0000 0.0000 0.0000 3.2560 17.5446 -28.3020 -1.5886 -7.9506 22.5642 -0.0370 -9.9142 -14.7153 -0.1520 2.5126 -6.9246 -13.6996 -3.1984 -0.8394 -2.1745 -4.3502 0.3326 5.2244 -2.3927 1.6441 -4.0813 -2.2574 -8.9136 14.7801 -2.3468 -0.3862 5.0576 -0.5537 1.6186 0.0000 -0.0000 0.0000 34.2184 -43.6946 10.3608 47.1839 -51.7946 23.9428 -9.638 -59.0425 -29.3394 0.0 0.0 0.0 -7.1250 0.0 0.0 -41.9524 54.1733 10.9214 0.0000 -0.0000 0.0000 1.1956 14.1711 -4.9729 -9.1733 -15.4362 -1.2458 -18.2141 27.3459 -23.977 0.0 0.0 0.0 7.1250 0.0 -0.0 6.8174 5.0413 6.2372
